<?xml version="1.0" encoding="utf-8"?>
<!-- Generator: Adobe Illustrator 27.5.0, SVG Export Plug-In . SVG Version: 6.00 Build 0)  -->
<svg version="1.1" id="Layer_1" xmlns="http://www.w3.org/2000/svg" xmlns:xlink="http://www.w3.org/1999/xlink" x="0px" y="0px"
	 viewBox="0 0 357.86 494.062" style="enable-background:new 0 0 357.86 494.062;" xml:space="preserve">
<g>
	<linearGradient id="SVGID_1_" gradientUnits="userSpaceOnUse" x1="359.0791" y1="-8.1154" x2="16.6555" y2="475.4599">
		<stop  offset="0" style="stop-color:#469AD9"/>
		<stop  offset="1" style="stop-color:#10DBDD"/>
	</linearGradient>
	<path style="fill:url(#SVGID_1_);" d="M330.506,0h-2.16H29.514h-2.16C12.272,0,0,12.272,0,27.354v2.16v121.889v313.144
		c0,16.272,13.242,29.514,29.514,29.514h298.832c16.272,0,29.514-13.242,29.514-29.514V151.403V29.514v-2.16
		C357.86,12.272,345.588,0,330.506,0z M328.346,10.238c10.628,0,19.276,8.648,19.276,19.276v111.652H10.238V29.514
		c0-10.628,8.648-19.276,19.276-19.276H328.346z M347.622,464.548c0,10.628-8.648,19.276-19.276,19.276H29.514
		c-10.628,0-19.276-8.648-19.276-19.276V151.403h337.384V464.548z"/>
	
		<linearGradient id="SVGID_00000170970582170079938950000009959097659648905914_" gradientUnits="userSpaceOnUse" x1="278.6234" y1="-65.0867" x2="-63.8002" y2="418.4886">
		<stop  offset="0" style="stop-color:#469AD9"/>
		<stop  offset="1" style="stop-color:#10DBDD"/>
	</linearGradient>
	<path style="fill:url(#SVGID_00000170970582170079938950000009959097659648905914_);" d="M28.969,110.552
		c0,8.083,6.574,14.657,14.657,14.657h270.608c8.083,0,14.657-6.574,14.657-14.657v-69.7c0-8.083-6.574-14.657-14.657-14.657H43.626
		c-8.083,0-14.657,6.574-14.657,14.657V110.552z M39.207,40.851c0-2.434,1.985-4.419,4.419-4.419h270.608
		c2.434,0,4.419,1.985,4.419,4.419v69.7c0,2.434-1.985,4.419-4.419,4.419H43.626c-2.434,0-4.419-1.985-4.419-4.419V40.851z"/>
	
		<linearGradient id="SVGID_00000085212479417653035680000018229432468693378965_" gradientUnits="userSpaceOnUse" x1="253.7782" y1="-82.6798" x2="-88.6454" y2="400.8956">
		<stop  offset="0" style="stop-color:#469AD9"/>
		<stop  offset="1" style="stop-color:#10DBDD"/>
	</linearGradient>
	<path style="fill:url(#SVGID_00000085212479417653035680000018229432468693378965_);" d="M36.992,222.628h43.006
		c4.424,0,8.023-3.599,8.023-8.023v-43.011c0-4.419-3.599-8.018-8.023-8.018H36.992c-4.424,0-8.023,3.599-8.023,8.018v43.011
		C28.969,219.029,32.568,222.628,36.992,222.628z M39.207,173.814h38.577v38.577H39.207V173.814z"/>
	
		<linearGradient id="SVGID_00000145743201840910596650000007713323376293063309_" gradientUnits="userSpaceOnUse" x1="307.2533" y1="-44.8137" x2="-35.1704" y2="438.7617">
		<stop  offset="0" style="stop-color:#469AD9"/>
		<stop  offset="1" style="stop-color:#10DBDD"/>
	</linearGradient>
	<path style="fill:url(#SVGID_00000145743201840910596650000007713323376293063309_);" d="M117.28,222.628h43.011
		c4.419,0,8.018-3.599,8.018-8.023v-43.011c0-4.419-3.599-8.018-8.018-8.018H117.28c-4.424,0-8.023,3.599-8.023,8.018v43.011
		C109.257,219.029,112.856,222.628,117.28,222.628z M119.495,173.814h38.577v38.577h-38.577V173.814z"/>
	
		<linearGradient id="SVGID_00000156562042903696683920000018290865069415681966_" gradientUnits="userSpaceOnUse" x1="360.7314" y1="-6.9454" x2="18.3078" y2="476.63">
		<stop  offset="0" style="stop-color:#469AD9"/>
		<stop  offset="1" style="stop-color:#10DBDD"/>
	</linearGradient>
	<path style="fill:url(#SVGID_00000156562042903696683920000018290865069415681966_);" d="M197.574,222.628h43.006
		c4.424,0,8.023-3.599,8.023-8.023v-43.011c0-4.419-3.599-8.018-8.023-8.018h-43.006c-4.424,0-8.023,3.599-8.023,8.018v43.011
		C189.55,219.029,193.15,222.628,197.574,222.628z M199.788,173.814h38.577v38.577h-38.577V173.814z"/>
	
		<linearGradient id="SVGID_00000032608772136640472920000011862881575348082620_" gradientUnits="userSpaceOnUse" x1="414.2064" y1="30.9207" x2="71.7828" y2="514.496">
		<stop  offset="0" style="stop-color:#469AD9"/>
		<stop  offset="1" style="stop-color:#10DBDD"/>
	</linearGradient>
	<path style="fill:url(#SVGID_00000032608772136640472920000011862881575348082620_);" d="M277.862,222.628h43.006
		c4.424,0,8.023-3.599,8.023-8.023v-43.011c0-4.419-3.599-8.018-8.023-8.018h-43.006c-4.424,0-8.023,3.599-8.023,8.018v43.011
		C269.839,219.029,273.438,222.628,277.862,222.628z M280.076,173.814h38.577v38.577h-38.577V173.814z"/>
	
		<linearGradient id="SVGID_00000168796710917690714560000000116163696666980238_" gradientUnits="userSpaceOnUse" x1="290.7227" y1="-56.5191" x2="-51.7009" y2="427.0562">
		<stop  offset="0" style="stop-color:#469AD9"/>
		<stop  offset="1" style="stop-color:#10DBDD"/>
	</linearGradient>
	<path style="fill:url(#SVGID_00000168796710917690714560000000116163696666980238_);" d="M36.992,300.962h43.006
		c4.424,0,8.023-3.599,8.023-8.023v-43.006c0-4.424-3.599-8.023-8.023-8.023H36.992c-4.424,0-8.023,3.599-8.023,8.023v43.006
		C28.969,297.363,32.568,300.962,36.992,300.962z M39.207,252.147h38.577v38.577H39.207V252.147z"/>
	
		<linearGradient id="SVGID_00000055674914299588601810000010948884615048094133_" gradientUnits="userSpaceOnUse" x1="344.1978" y1="-18.653" x2="1.7741" y2="464.9223">
		<stop  offset="0" style="stop-color:#469AD9"/>
		<stop  offset="1" style="stop-color:#10DBDD"/>
	</linearGradient>
	<path style="fill:url(#SVGID_00000055674914299588601810000010948884615048094133_);" d="M117.28,300.962h43.011
		c4.419,0,8.018-3.599,8.018-8.023v-43.006c0-4.424-3.599-8.023-8.018-8.023H117.28c-4.424,0-8.023,3.599-8.023,8.023v43.006
		C109.257,297.363,112.856,300.962,117.28,300.962z M119.495,252.147h38.577v38.577h-38.577V252.147z"/>
	
		<linearGradient id="SVGID_00000139992257956098136460000016026802595126018955_" gradientUnits="userSpaceOnUse" x1="397.6759" y1="19.2153" x2="55.2523" y2="502.7907">
		<stop  offset="0" style="stop-color:#469AD9"/>
		<stop  offset="1" style="stop-color:#10DBDD"/>
	</linearGradient>
	<path style="fill:url(#SVGID_00000139992257956098136460000016026802595126018955_);" d="M197.574,300.962h43.006
		c4.424,0,8.023-3.599,8.023-8.023v-43.006c0-4.424-3.599-8.023-8.023-8.023h-43.006c-4.424,0-8.023,3.599-8.023,8.023v43.006
		C189.55,297.363,193.15,300.962,197.574,300.962z M199.788,252.147h38.577v38.577h-38.577V252.147z"/>
	
		<linearGradient id="SVGID_00000067196962987137008840000002931027574162602425_" gradientUnits="userSpaceOnUse" x1="451.1508" y1="57.0814" x2="108.7272" y2="540.6567">
		<stop  offset="0" style="stop-color:#469AD9"/>
		<stop  offset="1" style="stop-color:#10DBDD"/>
	</linearGradient>
	<path style="fill:url(#SVGID_00000067196962987137008840000002931027574162602425_);" d="M277.862,300.962h43.006
		c4.424,0,8.023-3.599,8.023-8.023v-43.006c0-4.424-3.599-8.023-8.023-8.023h-43.006c-4.424,0-8.023,3.599-8.023,8.023v43.006
		C269.839,297.363,273.438,300.962,277.862,300.962z M280.076,252.147h38.577v38.577h-38.577V252.147z"/>
	
		<linearGradient id="SVGID_00000057114057500620824690000008936261670444556457_" gradientUnits="userSpaceOnUse" x1="327.6693" y1="-30.357" x2="-14.7544" y2="453.2184">
		<stop  offset="0" style="stop-color:#469AD9"/>
		<stop  offset="1" style="stop-color:#10DBDD"/>
	</linearGradient>
	<path style="fill:url(#SVGID_00000057114057500620824690000008936261670444556457_);" d="M36.992,379.301h43.006
		c4.424,0,8.023-3.599,8.023-8.023v-43.006c0-4.424-3.599-8.023-8.023-8.023H36.992c-4.424,0-8.023,3.599-8.023,8.023v43.006
		C28.969,375.701,32.568,379.301,36.992,379.301z M39.207,330.486h38.577v38.577H39.207V330.486z"/>
	
		<linearGradient id="SVGID_00000093148433230272495680000014320256412685407419_" gradientUnits="userSpaceOnUse" x1="381.1443" y1="7.5091" x2="38.7207" y2="491.0845">
		<stop  offset="0" style="stop-color:#469AD9"/>
		<stop  offset="1" style="stop-color:#10DBDD"/>
	</linearGradient>
	<path style="fill:url(#SVGID_00000093148433230272495680000014320256412685407419_);" d="M117.28,379.301h43.011
		c4.419,0,8.018-3.599,8.018-8.023v-43.006c0-4.424-3.599-8.023-8.018-8.023H117.28c-4.424,0-8.023,3.599-8.023,8.023v43.006
		C109.257,375.701,112.856,379.301,117.28,379.301z M119.495,330.486h38.577v38.577h-38.577V330.486z"/>
	
		<linearGradient id="SVGID_00000037693368192001467900000007886226303211066289_" gradientUnits="userSpaceOnUse" x1="434.6225" y1="45.3775" x2="92.1988" y2="528.9528">
		<stop  offset="0" style="stop-color:#469AD9"/>
		<stop  offset="1" style="stop-color:#10DBDD"/>
	</linearGradient>
	<path style="fill:url(#SVGID_00000037693368192001467900000007886226303211066289_);" d="M197.574,379.301h43.006
		c4.424,0,8.023-3.599,8.023-8.023v-43.006c0-4.424-3.599-8.023-8.023-8.023h-43.006c-4.424,0-8.023,3.599-8.023,8.023v43.006
		C189.55,375.701,193.15,379.301,197.574,379.301z M199.788,330.486h38.577v38.577h-38.577V330.486z"/>
	
		<linearGradient id="SVGID_00000150819550445262108410000002671151993018393006_" gradientUnits="userSpaceOnUse" x1="364.6158" y1="-4.1948" x2="22.1922" y2="479.3806">
		<stop  offset="0" style="stop-color:#469AD9"/>
		<stop  offset="1" style="stop-color:#10DBDD"/>
	</linearGradient>
	<path style="fill:url(#SVGID_00000150819550445262108410000002671151993018393006_);" d="M36.992,457.639h43.006
		c4.424,0,8.023-3.599,8.023-8.023V406.61c0-4.424-3.599-8.023-8.023-8.023H36.992c-4.424,0-8.023,3.599-8.023,8.023v43.006
		C28.969,454.04,32.568,457.639,36.992,457.639z M39.207,408.824h38.577v38.577H39.207V408.824z"/>
	
		<linearGradient id="SVGID_00000173148862428460759510000003627317551468691107_" gradientUnits="userSpaceOnUse" x1="418.0909" y1="33.6713" x2="75.6672" y2="517.2466">
		<stop  offset="0" style="stop-color:#469AD9"/>
		<stop  offset="1" style="stop-color:#10DBDD"/>
	</linearGradient>
	<path style="fill:url(#SVGID_00000173148862428460759510000003627317551468691107_);" d="M117.28,457.639h43.011
		c4.419,0,8.018-3.599,8.018-8.023V406.61c0-4.424-3.599-8.023-8.018-8.023H117.28c-4.424,0-8.023,3.599-8.023,8.023v43.006
		C109.257,454.04,112.856,457.639,117.28,457.639z M119.495,408.824h38.577v38.577h-38.577V408.824z"/>
	
		<linearGradient id="SVGID_00000063634273809602816380000003162207425419954598_" gradientUnits="userSpaceOnUse" x1="471.569" y1="71.5396" x2="129.1454" y2="555.115">
		<stop  offset="0" style="stop-color:#469AD9"/>
		<stop  offset="1" style="stop-color:#10DBDD"/>
	</linearGradient>
	<path style="fill:url(#SVGID_00000063634273809602816380000003162207425419954598_);" d="M197.574,457.639h43.006
		c4.424,0,8.023-3.599,8.023-8.023V406.61c0-4.424-3.599-8.023-8.023-8.023h-43.006c-4.424,0-8.023,3.599-8.023,8.023v43.006
		C189.55,454.04,193.15,457.639,197.574,457.639z M199.788,408.824h38.577v38.577h-38.577V408.824z"/>
	
		<linearGradient id="SVGID_00000119804431277713525130000005971741318633838502_" gradientUnits="userSpaceOnUse" x1="506.5708" y1="96.3247" x2="164.1472" y2="579.9">
		<stop  offset="0" style="stop-color:#469AD9"/>
		<stop  offset="1" style="stop-color:#10DBDD"/>
	</linearGradient>
	<path style="fill:url(#SVGID_00000119804431277713525130000005971741318633838502_);" d="M279.646,457.639h39.442
		c5.404,0,9.803-4.399,9.803-9.808V330.056c0-5.409-4.399-9.808-9.803-9.808h-39.442c-5.409,0-9.808,4.399-9.808,9.808v117.775
		C269.839,453.24,274.238,457.639,279.646,457.639z M280.076,330.486h38.577v116.916h-38.577V330.486z"/>
</g>
</svg>
