<?xml version="1.0" encoding="utf-8"?>
<!-- Generator: Adobe Illustrator 27.5.0, SVG Export Plug-In . SVG Version: 6.00 Build 0)  -->
<svg version="1.1" id="Layer_1" xmlns="http://www.w3.org/2000/svg" xmlns:xlink="http://www.w3.org/1999/xlink" x="0px" y="0px"
	 viewBox="0 0 1000 1000" style="enable-background:new 0 0 1000 1000;" xml:space="preserve">
<rect style="fill:#FFFFFF;" width="1000" height="1000"/>
<g>
	<g>
		<g>
			<polygon style="fill:#FFFFFF;" points="438.314,647.657 423.022,728.264 578.792,728.264 563.241,647.657 			"/>
			<path d="M585.903,734.135H415.922l17.525-92.353h134.644L585.903,734.135z M430.119,722.383h141.553l-13.29-68.849H443.179
				L430.119,722.383z"/>
		</g>
		<g>
			<path style="fill:#FFFFFF;" d="M683.157,758.243H316.843c-6.585,0-11.922-5.338-11.922-11.922v-18.661
				c0-11.929,9.67-21.599,21.599-21.599h346.962c11.929,0,21.599,9.67,21.599,21.599v18.661
				C695.08,752.905,689.742,758.243,683.157,758.243z"/>
			<path d="M683.156,764.124H316.844c-9.813,0-17.8-7.988-17.8-17.8v-18.661c0-15.149,12.326-27.475,27.475-27.475h346.963
				c15.149,0,27.475,12.326,27.475,27.475v18.661C700.956,756.136,692.969,764.124,683.156,764.124z M326.519,711.94
				c-8.671,0-15.723,7.058-15.723,15.723v18.661c0,3.34,2.714,6.048,6.048,6.048h366.312c3.34,0,6.048-2.708,6.048-6.048v-18.661
				c0-8.665-7.058-15.723-15.723-15.723H326.519z"/>
		</g>
	</g>
	<g>
		<path style="fill:#FFFFFF;" d="M741.278,662.647H258.722c-29.186,0-52.846-23.66-52.846-52.846V294.603
			c0-29.186,23.66-52.846,52.846-52.846h482.557c29.186,0,52.846,23.66,52.846,52.846v315.197
			C794.124,638.987,770.464,662.647,741.278,662.647z"/>
		<path d="M741.274,668.523H258.72c-32.381,0-58.72-26.339-58.72-58.726V294.602c0-32.387,26.339-58.726,58.72-58.726h482.554
			c32.387,0,58.726,26.339,58.726,58.726v315.195C800,642.184,773.661,668.523,741.274,668.523z M258.72,247.628
			c-25.897,0-46.968,21.071-46.968,46.974v315.195c0,25.903,21.071,46.974,46.968,46.974h482.554
			c25.903,0,46.974-21.071,46.974-46.974V294.602c0-25.903-21.071-46.974-46.974-46.974H258.72z"/>
	</g>
	<g>
		<path style="fill:#FFFFFF;" d="M741.278,662.647H258.722c-29.186,0-52.846-23.66-52.846-52.846v-8.751h588.249v8.751
			C794.124,638.987,770.464,662.647,741.278,662.647z"/>
		<path d="M741.274,668.523H258.72c-32.381,0-58.72-26.339-58.72-58.726v-14.621h600v14.621
			C800,642.184,773.661,668.523,741.274,668.523z M211.752,606.928v2.869c0,25.903,21.071,46.974,46.968,46.974h482.554
			c25.903,0,46.974-21.071,46.974-46.974v-2.869H211.752z"/>
	</g>
	<g>
		<g>
			<g>
				<path style="fill:#FFFFFF;" d="M604.544,286.296v276.593c0,4.033-3.286,7.318-7.318,7.318h-171.9
					c-3.061,0-5.974-0.448-8.737-1.344c-0.896-0.299-1.867-0.672-2.763-1.046c-0.075,0.075-0.075,0.075-0.075,0
					c-7.169-3.062-12.844-8.737-15.906-15.906c-0.075,0-0.075,0,0-0.075c-0.373-0.896-0.747-1.867-1.046-2.763
					c-0.896-2.763-1.344-5.675-1.344-8.737V303.322c0-13.442,10.903-24.344,24.344-24.344h177.426
					C601.258,278.978,604.544,282.264,604.544,286.296z"/>
				<path d="M597.23,576.079H425.327c-3.403,0-6.714-0.471-9.847-1.412l-0.075,0.08l-7.523-3.282
					c-5.744-3.236-10.455-7.942-13.68-13.68h-0.367l-2.978-7.483l0.138-0.126c-0.947-3.168-1.417-6.461-1.417-9.836V303.324
					c0-16.664,13.56-30.218,30.224-30.218H597.23c7.276,0,13.187,5.91,13.187,13.187v276.599
					C610.417,570.168,604.507,576.079,597.23,576.079z M415.113,561.985l1.004,0.413c0.757,0.321,1.572,0.631,2.33,0.884
					c2.117,0.689,4.447,1.044,6.88,1.044H597.23c0.78,0,1.435-0.654,1.435-1.435V286.293c0-0.78-0.654-1.435-1.435-1.435H419.801
					c-10.186,0-18.472,8.286-18.472,18.466V540.34c0,2.445,0.35,4.717,1.062,6.92c0.241,0.723,0.562,1.549,0.878,2.318l0.379,0.907
					C406.041,555.536,410.057,559.564,415.113,561.985z"/>
			</g>
			<g>
				<path style="fill:#FFFFFF;" d="M443.994,278.978v261.36h-48.538V303.322c0-13.442,10.903-24.344,24.344-24.344H443.994z"/>
				<path d="M449.87,546.217h-60.293V303.324c0-16.664,13.56-30.218,30.224-30.218h30.069V546.217z M401.329,534.464h36.788V284.858
					h-18.317c-10.186,0-18.472,8.286-18.472,18.466V534.464z"/>
			</g>
			<g>
				<path style="fill:#FFFFFF;" d="M604.544,515.994v46.895c0,4.033-3.286,7.318-7.318,7.318h-171.9
					c-3.061,0-5.974-0.448-8.737-1.344c-0.896-0.299-1.867-0.672-2.763-1.046c-0.075,0.075-0.075,0.075-0.075,0
					c-7.169-2.987-12.919-8.737-15.906-15.906c-0.075,0-0.075,0,0-0.075c-0.373-0.896-0.747-1.867-1.046-2.763
					c-0.896-2.763-1.344-5.675-1.344-8.737v-0.224c0.075-8.139,3.435-15.532,8.737-20.909c5.452-5.376,12.919-8.737,21.133-8.737
					h173.692C602.079,510.468,604.544,512.932,604.544,515.994z"/>
				<path d="M597.23,576.079H425.327c-3.403,0-6.714-0.471-9.847-1.412l-0.075,0.08l-7.523-3.259
					c-5.721-3.202-10.501-7.988-13.703-13.703h-0.344l-2.978-7.483l0.138-0.126c-0.947-3.168-1.417-6.461-1.417-9.836
					c0.092-9.663,3.799-18.535,10.427-25.26c6.886-6.783,15.855-10.49,25.323-10.49h173.694c6.289,0,11.396,5.119,11.396,11.408
					v46.894C610.417,570.168,604.507,576.079,597.23,576.079z M414.895,561.894l1.222,0.505c0.757,0.321,1.572,0.631,2.33,0.884
					c2.117,0.689,4.447,1.044,6.88,1.044H597.23c0.78,0,1.435-0.654,1.435-1.435v-46.549H425.327
					c-6.358,0-12.401,2.502-17.008,7.047c-4.424,4.487-6.926,10.467-6.989,16.779c0,2.617,0.35,4.889,1.062,7.093
					c0.241,0.723,0.562,1.549,0.878,2.318l0.459,1.102C406.041,555.559,410.029,559.552,414.895,561.894z"/>
			</g>
		</g>
		<g>
			<path d="M604.541,546.297H437.877c-3.248,0-5.876-2.628-5.876-5.876c0-3.248,2.628-5.876,5.876-5.876h166.664
				c3.248,0,5.876,2.628,5.876,5.876C610.417,543.669,607.789,546.297,604.541,546.297z"/>
		</g>
		<g>
			<polygon style="fill:#FFFFFF;" points="464.406,278.978 464.406,341.657 485.828,319.704 507.78,341.657 507.78,278.978 			"/>
			<path d="M464.405,347.533c-0.746,0-1.498-0.138-2.215-0.436c-2.215-0.895-3.661-3.053-3.661-5.44v-62.674
				c0-3.248,2.628-5.876,5.876-5.876h43.376c3.248,0,5.876,2.628,5.876,5.876v62.674c0,2.376-1.435,4.522-3.627,5.428
				c-2.181,0.918-4.717,0.413-6.404-1.274l-17.749-17.743l-17.267,17.697C467.481,346.913,465.96,347.533,464.405,347.533z
				 M485.826,313.826c1.561,0,3.053,0.62,4.155,1.721l11.924,11.924v-42.613h-31.624v42.36l11.339-11.626
				c1.096-1.125,2.599-1.756,4.172-1.767C485.803,313.826,485.815,313.826,485.826,313.826z"/>
		</g>
	</g>
</g>
</svg>
