<?xml version="1.0" encoding="utf-8"?>
<!-- Generator: Adobe Illustrator 27.5.0, SVG Export Plug-In . SVG Version: 6.00 Build 0)  -->
<svg version="1.1" id="Layer_1" xmlns="http://www.w3.org/2000/svg" xmlns:xlink="http://www.w3.org/1999/xlink" x="0px" y="0px"
	 viewBox="0 0 1000 1000" style="enable-background:new 0 0 1000 1000;" xml:space="preserve">
<rect style="fill:#FFFFFF;" width="1000" height="1000"/>
<g>
	<g>
		<g>
			<g>
				<path style="fill:#FFFFFF;" d="M628.558,219.998V720.49c0,7.297-5.945,13.243-13.242,13.243H304.265
					c-5.54,0-10.81-0.811-15.809-2.432c-1.621-0.541-3.378-1.216-4.999-1.892c-0.135,0.135-0.135,0.135-0.135,0
					c-12.972-5.54-23.241-15.809-28.781-28.781c-0.135,0-0.135,0,0-0.135c-0.675-1.621-1.352-3.378-1.892-4.999
					c-1.621-4.999-2.432-10.269-2.432-15.809V250.806c0-24.323,19.728-44.05,44.05-44.05h321.05
					C622.613,206.756,628.558,212.702,628.558,219.998z"/>
				<path d="M615.316,740.488H304.271c-6.255,0-12.272-0.924-17.893-2.758c-0.422-0.145-0.831-0.277-1.254-0.435l-0.079,0.079
					l-8.471-3.682c-11.322-5.846-20.466-14.99-26.312-26.312h-0.238l-3.55-8.353l0.185-0.185c-0.145-0.409-0.29-0.818-0.422-1.214
					c-1.847-5.687-2.771-11.718-2.771-17.946V250.803c0-28.014,22.789-50.803,50.803-50.803h321.047
					c11.031,0,20.004,8.973,20.004,20.004v500.479C635.32,731.515,626.347,740.488,615.316,740.488z M284.293,722.437l1.795,0.739
					c1.465,0.62,3.048,1.227,4.513,1.715c4.223,1.386,8.841,2.085,13.671,2.085h311.045c3.576,0,6.492-2.916,6.492-6.492V220.004
					c0-3.576-2.916-6.492-6.492-6.492H294.269c-20.559,0-37.29,16.732-37.29,37.291v428.881c0,4.816,0.699,9.435,2.098,13.723
					c0.475,1.425,1.095,3.022,1.702,4.5l0.699,1.676C266.215,709.65,274.225,717.673,284.293,722.437z"/>
			</g>
			<g>
				<path style="fill:#FFFFFF;" d="M338.046,206.756v472.927h-87.829V250.806c0-24.323,19.728-44.05,44.05-44.05H338.046z"/>
				<path d="M344.808,686.439H243.466V250.803c0-28.014,22.789-50.803,50.803-50.803h50.539V686.439z M256.978,672.927h74.317
					V213.512h-37.027c-20.559,0-37.29,16.732-37.29,37.291V672.927z"/>
			</g>
			<g>
				<path style="fill:#FFFFFF;" d="M628.558,635.634v84.856c0,7.297-5.945,13.243-13.242,13.243H304.265
					c-5.54,0-10.81-0.811-15.809-2.432c-1.621-0.541-3.378-1.216-4.999-1.892c-0.135,0.135-0.135,0.135-0.135,0
					c-12.972-5.405-23.377-15.809-28.781-28.781c-0.135,0-0.135,0,0-0.135c-0.675-1.621-1.352-3.378-1.892-4.999
					c-1.621-4.999-2.432-10.269-2.432-15.809v-0.406c0.135-14.728,6.216-28.105,15.809-37.834
					c9.864-9.728,23.377-15.809,38.24-15.809h314.294C624.099,625.635,628.558,630.093,628.558,635.634z"/>
				<path d="M615.316,740.488H304.271c-6.255,0-12.272-0.924-17.893-2.758c-0.422-0.145-0.831-0.277-1.254-0.435l-0.079,0.079
					l-8.471-3.655c-11.269-5.753-20.572-15.056-26.351-26.338h-0.198l-3.55-8.353l0.185-0.185c-0.145-0.409-0.29-0.818-0.422-1.214
					c-1.847-5.687-2.771-11.718-2.771-17.946c0.145-16.428,6.453-31.524,17.748-42.991c11.678-11.506,26.945-17.814,43.057-17.814
					h314.291c9.237,0,16.758,7.521,16.758,16.758v84.847C635.32,731.515,626.347,740.488,615.316,740.488z M283.937,722.292
					l2.151,0.884c1.465,0.62,3.048,1.227,4.513,1.715c4.223,1.386,8.841,2.085,13.671,2.085h311.045
					c3.576,0,6.492-2.916,6.492-6.492v-84.847c0-1.821-1.425-3.246-3.246-3.246H304.271c-12.536,0-24.438,4.922-33.49,13.855
					c-8.762,8.894-13.697,20.664-13.802,33.094c0,5.159,0.699,9.778,2.098,14.066c0.475,1.425,1.095,3.022,1.702,4.5l0.831,1.993
					C266.215,709.677,274.198,717.686,283.937,722.292z"/>
			</g>
		</g>
		<g>
			<path d="M628.564,686.585H326.98c-3.734,0-6.756-3.022-6.756-6.756c0-3.734,3.022-6.756,6.756-6.756h301.583
				c3.734,0,6.756,3.022,6.756,6.756C635.32,683.563,632.298,686.585,628.564,686.585z"/>
		</g>
		<g>
			<rect x="411.607" y="265.922" style="fill:#FFFFFF;" width="142.671" height="52.243"/>
			<path d="M561.029,324.922H404.847v-65.753h156.182V324.922z M418.359,311.41h129.158v-38.729H418.359V311.41z"/>
		</g>
		<g>
			<polygon style="fill:#FFFFFF;" points="425.591,679.827 425.591,793.244 464.834,754.001 504.077,793.244 504.077,679.827 			"/>
			<path d="M504.077,800c-1.755,0-3.484-0.686-4.777-1.979l-34.467-34.467l-34.467,34.467c-1.94,1.94-4.856,2.494-7.363,1.465
				c-2.52-1.042-4.17-3.51-4.17-6.241V679.828c0-3.734,3.022-6.756,6.756-6.756h78.487c3.734,0,6.756,3.022,6.756,6.756v113.415
				c0,2.731-1.649,5.199-4.17,6.241C505.832,799.828,504.948,800,504.077,800z M464.834,747.244c1.729,0,3.457,0.66,4.777,1.979
				l27.711,27.711v-90.35h-64.975v90.35l27.711-27.711C461.377,747.904,463.105,747.244,464.834,747.244z"/>
		</g>
	</g>
	<g>
		<g>
			<g>
				<polygon style="fill:#FFFFFF;" points="750.786,709.533 717.456,760.146 715.17,763.621 712.884,760.146 679.553,709.533 
					700.585,662.441 729.755,662.441 				"/>
				<path d="M715.153,772.817l-41.355-62.824l23.501-52.624h35.747l23.488,52.637L715.153,772.817z M685.305,709.07l29.861,45.34
					l29.861-45.34l-18.553-41.566h-22.604L685.305,709.07z"/>
			</g>
		</g>
		<g>
			<g>
				<g>
					<path d="M717.456,713.603v46.544l-2.286,3.475l-2.286-3.475v-46.544c0-1.235,1.006-2.286,2.286-2.286
						C716.45,711.317,717.456,712.368,717.456,713.603z"/>
				</g>
			</g>
		</g>
		<g>
			<g>
				<circle cx="715.169" cy="708.75" r="6.915"/>
			</g>
		</g>
		<g>
			<g>
				<path style="fill:#FFFFFF;" d="M734.973,646.065h-39.607c-6.362,0-11.52-5.158-11.52-11.52V271.738h62.647v362.807
					C746.493,640.908,741.335,646.065,734.973,646.065z"/>
				<path d="M734.973,651.128H695.36c-9.144,0-16.587-7.442-16.587-16.587V266.677h72.786v367.865
					C751.559,643.686,744.117,651.128,734.973,651.128z M688.907,276.811v357.73c0,3.563,2.89,6.453,6.453,6.453h39.613
					c3.563,0,6.453-2.89,6.453-6.453v-357.73H688.907z"/>
			</g>
		</g>
		<g>
			<g>
				<path style="fill:#FFFFFF;" d="M734.722,253.061h-39.106c-6.501,0-11.771,5.27-11.771,11.771v6.907h62.647v-6.907
					C746.493,258.331,741.223,253.061,734.722,253.061z"/>
				<path d="M751.559,276.811h-72.786V264.83c0-9.29,7.548-16.837,16.837-16.837h39.112c9.29,0,16.837,7.548,16.837,16.837V276.811z
					 M688.907,266.677h52.518v-1.847c0-3.695-3.009-6.703-6.703-6.703H695.61c-3.695,0-6.703,3.009-6.703,6.703V266.677z"/>
			</g>
		</g>
		<g>
			<g>
				<path style="fill:#FFFFFF;" d="M715.314,206.756h-0.289c-10.02,0-18.144,8.123-18.144,18.144v27.431h36.577V224.9
					C733.458,214.88,725.335,206.756,715.314,206.756z"/>
				<path d="M738.522,257.4H691.81V224.9c0-12.8,10.411-23.211,23.211-23.211h0.29c12.8,0,23.211,10.411,23.211,23.211V257.4z
					 M701.944,247.266h26.444V224.9c0-7.205-5.872-13.077-13.077-13.077h-0.29c-7.205,0-13.077,5.872-13.077,13.077V247.266z"/>
			</g>
		</g>
		<g>
			<g>
				<path style="fill:#FFFFFF;" d="M715.169,290.805L715.169,290.805c-6.608,0-11.965,5.357-11.965,11.965v100.878
					c0,6.608,5.357,11.965,11.965,11.965h0c6.608,0,11.965-5.357,11.965-11.965V302.77
					C727.135,296.162,721.778,290.805,715.169,290.805z"/>
				<path d="M715.166,420.682c-9.395,0-17.035-7.64-17.035-17.035v-100.88c0-9.395,7.64-17.035,17.035-17.035
					c9.395,0,17.035,7.64,17.035,17.035v100.88C732.201,413.042,724.561,420.682,715.166,420.682z M715.166,295.865
					c-3.8,0-6.901,3.101-6.901,6.901v100.88c0,3.8,3.101,6.901,6.901,6.901c3.8,0,6.901-3.101,6.901-6.901v-100.88
					C722.067,298.966,718.966,295.865,715.166,295.865z"/>
			</g>
		</g>
		<g>
			<g>
				<path style="fill:#FFFFFF;" d="M746.59,654.252L746.59,654.252c0-4.521-3.665-8.187-8.187-8.187h-46.468
					c-4.521,0-8.187,3.665-8.187,8.187v0c0,4.521,3.665,8.187,8.187,8.187h46.468C742.925,662.439,746.59,658.774,746.59,654.252z"
					/>
				<path d="M738.403,667.504h-46.461c-7.31,0-13.262-5.938-13.262-13.248s5.951-13.261,13.262-13.261h46.461
					c7.31,0,13.248,5.951,13.248,13.261S745.714,667.504,738.403,667.504z M691.942,651.128c-1.729,0-3.127,1.399-3.127,3.127
					c0,1.715,1.399,3.114,3.127,3.114h46.461c1.715,0,3.114-1.399,3.114-3.114c0-1.729-1.399-3.127-3.114-3.127H691.942z"/>
			</g>
		</g>
	</g>
</g>
</svg>
