<?xml version="1.0" encoding="utf-8"?>
<!-- Generator: Adobe Illustrator 27.5.0, SVG Export Plug-In . SVG Version: 6.00 Build 0)  -->
<svg version="1.1" xmlns="http://www.w3.org/2000/svg" xmlns:xlink="http://www.w3.org/1999/xlink" x="0px" y="0px"
	 viewBox="0 0 1122 1122" style="enable-background:new 0 0 1122 1122;" xml:space="preserve">
<g id="Bg">
	<rect style="fill:#FFFFFF;" width="1122" height="1122"/>
</g>
<g id="Object">
	<g>
		<path d="M941.5,439.575L583.377,317.634c-1.888-0.651-3.949-0.571,0.87-2.637L236.57,464.135
			c-9.722,4.175-11.661,7.251-11.536,10.587c0.129,3.34,2.299,6.252,5.466,7.329l144.523,49.219
			c-2.367,1.479-3.906,4.127-3.797,7.115l0.929,23.977c-5.62-2.563-11.849-4.008-18.375-4.008c-18.687,0-34.986,11.538-41.39,28.666
			c-4.894,1.586-9.7,3.466-14.367,5.639c-5.619-2.477-11.724-3.775-17.918-3.775c-11.805,0-22.904,4.591-31.247,12.945
			c-12.53,12.513-16.233,31.454-9.809,47.64c-2.774,5.405-5.154,10.996-7.106,16.718c-16.073,6.962-26.551,22.686-26.551,40.579
			c0,17.888,10.478,33.612,26.551,40.574c1.952,5.72,4.332,11.316,7.106,16.724c-2.802,7.026-3.665,14.582-2.743,21.91
			c-4.319-2.042-9.562-0.561-12.074,3.62l-47.864,79.853c-1.764,2.937-1.792,6.595-0.072,9.558c1.676,2.916,4.791,4.705,8.144,4.705
			l0.175-0.004l42.137-0.763l19.194,37.543c1.561,3.046,4.647,5.005,8.065,5.121l0.313,0.005c3.311,0,6.376-1.73,8.08-4.571
			l47.864-79.849c2.673-4.461,1.228-10.246-3.237-12.916c-4.459-2.672-10.244-1.229-12.915,3.232l-39.13,65.286l-14.143-27.658
			c-1.604-3.152-4.843-5.13-8.378-5.13l-0.175,0.006l-31.043,0.562l39.029-65.097c2.105,4.458,4.966,8.618,8.581,12.224
			c8.349,8.348,19.45,12.943,31.255,12.943c6.192,0,12.29-1.292,17.909-3.771c4.667,2.169,9.473,4.058,14.367,5.637
			c6.404,17.128,22.702,28.668,41.39,28.668c19.522,0,36.452-12.682,42.172-30.863c3.709-1.412,7.346-3,10.898-4.746
			c6.323,3.334,13.359,5.085,20.633,5.085c11.818,0,22.912-4.6,31.246-12.942c3.637-3.635,6.505-7.779,8.618-12.211l39.007,65.072
			l-31.051-0.562c-3.586-0.139-6.926,1.92-8.553,5.133l-14.128,27.644l-39.158-65.282c-2.664-4.463-8.452-5.905-12.915-3.232
			c-4.459,2.678-5.91,8.459-3.232,12.923l47.895,79.842c1.707,2.846,4.778,4.571,8.08,4.571l0.319-0.005
			c3.421-0.116,6.506-2.085,8.059-5.131l19.175-37.534l42.142,0.763l0.175,0.004c3.354,0,6.469-1.789,8.153-4.705
			c1.72-2.963,1.685-6.621-0.072-9.558l-47.879-79.853c-2.505-4.181-7.732-5.663-12.052-3.633
			c1.176-9.371-0.616-19.071-5.495-27.566c1.328-2.932,2.533-5.909,3.622-8.914c19.044-5.105,32.764-22.499,32.787-42.716
			c0-4.215-0.632-8.289-1.751-12.171c22.499,3.167,46.761,4.812,71.911,4.812c7.521,0,15.129-0.15,22.788-0.443
			c57.702-2.223,95.947-8.595,132.022-21.973c4.174-1.55,6.301-6.197,4.748-10.379c-1.54-4.174-6.179-6.305-10.375-4.754
			c-34.346,12.74-71.148,18.822-127.011,20.975c-37.134,1.429-72.824-0.736-104.187-6.143c-5.546-5.982-12.741-10.452-20.931-12.653
			c-1.088-2.999-2.294-5.966-3.622-8.904c9.807-17.073,7.173-39.067-7.079-53.303c-8.34-8.356-19.435-12.949-31.253-12.949
			c-7.274,0-14.31,1.734-20.633,5.083c-3.536-1.744-7.182-3.339-10.898-4.749c-1.582-5.014-4.037-9.583-7.13-13.609l-1.458-37.845
			c-0.037-0.877-0.24-1.701-0.531-2.471l201.789,68.713c0.843,0.291,1.72,0.431,2.599,0.431c1.133,0,2.251-0.232,3.296-0.703
			l143.1-64.042l6.273,167.699c0.189,5.076,4.362,9.064,9.403,9.064l0.362-0.006c5.192-0.193,9.242-4.567,9.054-9.763l-1.62-43.29
			l0.16-0.061c32.212-18.068,48.852-37.704,48.12-56.791l-3.574-92.547l-0.122-0.848l136.407-58.52
			c3.07-1.309,5.01-4.382,4.885-7.724C946.829,443.563,944.658,440.651,941.5,439.575z M390.037,607.127
			c4.363,1.696,8.596,3.67,12.64,5.897c3.171,1.751,7.071,1.529,10.026-0.585c4.325-3.095,9.431-4.725,14.782-4.725
			c6.78,0,13.147,2.634,17.931,7.43c9.017,9.002,9.932,23.394,2.15,33.478c-2.215,2.866-2.586,6.76-0.952,10
			c1.438,2.852,2.744,5.753,3.906,8.674c1.024,2.557,1.945,5.13,2.744,7.704c1.096,3.537,4.16,6.096,7.835,6.55
			c6.708,0.833,12.53,4.264,16.546,9.189c3.593,4.394,5.748,9.986,5.748,16.022c-0.007,12.802-9.589,23.638-22.287,25.207
			c-3.674,0.454-6.745,3.017-7.841,6.555c-1.72,5.561-3.957,11.07-6.65,16.375c-1.634,3.238-1.263,7.135,0.952,10.001
			c7.782,10.09,6.867,24.485-2.157,33.496c-4.777,4.796-11.144,7.428-17.924,7.428c-5.35-0.002-10.456-1.637-14.782-4.733
			c-2.955-2.104-6.846-2.336-10.019-0.591c-5.591,3.074-11.514,5.672-17.627,7.712c-3.266,1.091-5.676,3.874-6.28,7.267
			c-2.17,12.09-12.684,20.869-24.995,20.869c-11.82,0-21.983-8.048-24.707-19.573c-0.783-3.353-3.331-5.999-6.649-6.917
			c-6.964-1.927-13.75-4.583-20.198-7.885c-1.351-0.693-2.83-1.044-4.297-1.044c-1.67,0-3.333,0.445-4.815,1.323
			c-3.919,2.328-8.413,3.558-13,3.558c-6.776,0-13.149-2.638-17.947-7.426c-7.921-7.918-9.709-20.294-4.334-30.11
			c1.567-2.849,1.545-6.309-0.053-9.144c-3.89-6.894-6.998-14.2-9.247-21.728c-0.909-3.019-3.261-5.391-6.281-6.311
			c-10.788-3.273-18.025-13.053-18.025-24.327c0-11.276,7.245-21.059,18.025-24.338c3.021-0.914,5.372-3.282,6.281-6.309
			c2.249-7.513,5.351-14.823,9.247-21.716c1.598-2.833,1.62-6.293,0.053-9.149c-5.366-9.816-3.58-22.192,4.334-30.11
			c4.791-4.792,11.164-7.428,17.938-7.428c4.59,0,9.09,1.235,13.009,3.566c2.782,1.655,6.222,1.766,9.112,0.282
			c6.448-3.308,13.243-5.968,20.204-7.895c3.311-0.918,5.86-3.568,6.642-6.907c2.723-11.527,12.887-19.575,24.707-19.575
			c7.652,0,14.6,3.391,19.291,8.85c2.852,3.33,4.878,7.428,5.705,12.007c0.603,3.389,3.014,6.169,6.273,7.267
			C386.732,605.875,388.395,606.481,390.037,607.127z M771.232,510.366c-4.094,1.754-5.996,6.5-4.239,10.594
			c1.75,4.104,6.506,6,10.599,4.239l12.277-5.273l3.362,87.24c0.421,10.918-11.725,24.802-32.822,37.904l-4.515-120.693
			c-0.138-3.729-2.461-7.023-5.925-8.401l-160.487-63.904c-4.835-1.916-10.309,0.438-12.233,5.265
			c-1.924,4.83,0.436,10.303,5.263,12.238l144.088,57.37l-135.775,60.756L255.59,473.551l325.52-139.647l335.292,114.178
			L771.232,510.366z"/>
		<path d="M364.977,640.774h-24.592c-3.711,0-6.723,3.011-6.723,6.725v120.328c0,3.718,3.012,6.725,6.723,6.725h24.592
			c3.712,0,6.723-3.007,6.723-6.725V647.5C371.7,643.785,368.69,640.774,364.977,640.774z M358.251,761.103h-11.136V654.225h11.136
			V761.103z"/>
		<circle style="fill:none;stroke:#000000;stroke-width:7.6263;stroke-miterlimit:10;" cx="352.682" cy="707.663" r="90.198"/>
	</g>
</g>
</svg>
