<?xml version="1.0" encoding="utf-8"?>
<!-- Generator: Adobe Illustrator 27.5.0, SVG Export Plug-In . SVG Version: 6.00 Build 0)  -->
<svg version="1.1" xmlns="http://www.w3.org/2000/svg" xmlns:xlink="http://www.w3.org/1999/xlink" x="0px" y="0px"
	 viewBox="0 0 2200 2200" style="enable-background:new 0 0 2200 2200;" xml:space="preserve">
<g id="background">
	<rect style="fill:#FFFFFF;" width="2200" height="2200"/>
</g>
<g id="Objects">
	<g>
		<path style="fill:#383838;" d="M1978.611,1246.197c-0.342-95.726-0.475-191.453-0.464-287.179
			c0.01-84.373,0.133-168.746,0.354-253.119c0.16-60.922,0.37-121.844,0.639-182.766c0.118-26.589,1.372-53.444,0.397-80.022
			c-0.013-0.365,0.004-0.733,0.006-1.099c0.027-4.482-2.894-10.19-8.06-10.19c-15.485,0-30.97,0-46.455,0
			c-39.21,0-78.419,0-117.629,0c18.997-18.912,33.619-41.719,36.354-67.589c2.31-21.852-5.142-44.537-21.461-59.565
			c-15.608-14.373-37.607-16.972-55.82-5.79c-41.432,25.437-43.452,84.203-26.727,124.67c1.159,2.803,2.425,5.559,3.776,8.274
			c-43.685,0-87.37,0-131.054,0c-2.814,0-5.628,0-8.443,0c12.701-14.85,23.189-31.398,30.726-48.796
			c9.575-22.103,11.863-48.839-1.23-70.068c-11.389-18.465-32.254-26.667-52.857-19.116
			c-42.728,15.659-53.646,69.669-41.324,108.734c3.24,10.271,7.815,20.093,13.49,29.246c-42.385,0-84.77,0-127.156,0
			c22.085-21.911,38.955-49.316,37.046-79.994c-1.276-20.489-11.793-42.596-29.909-53.358c-18.557-11.023-40.401-7.513-56.298,6.617
			c-34.775,30.91-35.046,86.93-15.72,126.121c0.102,0.206,0.211,0.408,0.314,0.613c-46.194,0-92.389,0-138.583,0
			c0.3-0.353,0.604-0.701,0.901-1.056c14.632-17.448,28.158-38.633,34.388-60.665c6.228-22.025,4.441-48.53-12.265-65.791
			c-15.351-15.862-37.607-16.922-55.955-5.625c-38.884,23.942-43.639,74.868-28.016,114.116c2.617,6.574,5.856,12.936,9.609,19.022
			c-11.424,0-22.848,0-34.272,0c-30.894,0-61.787,0-92.681,0c22.37-22.19,39.531-50.081,36.959-81.048
			c-1.706-20.548-12.278-42.29-30.697-52.796c-19.126-10.909-41.498-6.356-57.074,8.64c-32.457,31.249-34.063,85.929-15.235,124.639
			c0.093,0.19,0.194,0.376,0.288,0.565c-30.816,0-61.631,0-92.447,0c-14.682,0-29.364,0-44.046,0
			c0.034-0.044,0.07-0.087,0.104-0.131c14.505-18.626,28.509-40.264,34.721-63.223c6.087-22.5,3.149-49.212-14.541-65.944
			c-15.782-14.927-37.651-14.323-55.286-3.103c-38.647,24.589-42.404,76.396-26.03,115.367c2.466,5.87,5.418,11.567,8.791,17.035
			c-42.367,0-84.735,0-127.102,0c23.449-23.34,41.324-53.072,36.499-85.99c-2.974-20.291-14.614-40.33-33.436-49.59
			c-19.621-9.653-41.646-2.54-56.107,12.797c-30.76,32.624-30.215,84.324-10.824,122.783c-46.042,0-92.084,0-138.126,0
			c1.086-1.408,2.16-2.824,3.213-4.254c14.181-19.262,27.834-41.065,32.907-64.693c4.742-22.088-0.638-47.957-18.651-62.82
			c-16.93-13.97-39.424-10.314-56.157,1.742c-36.529,26.32-38.435,78.009-21.149,115.944c2.204,4.836,4.731,9.539,7.541,14.082
			c-32.263,0-64.526,0-96.788,0c-22.476,0-44.988-0.367-67.462,0c-0.943,0.015-1.887,0-2.831,0c-8.042,0-13.303,8.539-13.35,15.831
			c-0.177,27.299-0.373,54.599-0.57,81.898c-0.532,73.572-1.103,147.143-1.704,220.714c-0.868,106.217-1.801,212.434-2.802,318.651
			c-1.193,126.551-2.483,253.102-3.898,379.651c-1.486,132.854-3.108,265.706-4.941,398.555c-0.223,16.181-0.45,32.362-0.68,48.543
			c-0.064,4.489,2.92,10.182,8.06,10.19c12.409,0.021,24.819,0.041,37.228,0.062c33.96,0.056,67.921,0.112,101.881,0.169
			c50.027,0.083,100.055,0.166,150.083,0.248c61.021,0.101,122.042,0.202,183.064,0.303c67.13,0.111,134.259,0.222,201.389,0.333
			c67.472,0.112,134.944,0.223,202.416,0.335c62.915,0.104,125.831,0.208,188.746,0.312c53.182,0.088,106.365,0.176,159.547,0.264
			c38.273,0.063,76.547,0.127,114.82,0.19c18.2,0.03,36.448,0.444,54.646,0.09c0.174-0.003,0.348,0.001,0.521,0.001
			c0.954,0.201,1.963,0.213,3.004,0.005c11.344,0.019,22.687,0.037,34.031,0.056c28.38,0.047,56.76,0.094,85.14,0.141
			c34.189,0.057,68.378,0.113,102.567,0.17c29.703,0.049,59.407,0.098,89.111,0.147c14.351,0.024,28.788,0.508,43.135,0.071
			c0.207-0.006,0.415,0.001,0.622,0.001c7.839,0.013,13.575-8.552,13.35-15.831
			C1983.895,1802.932,1978.948,1340.686,1978.611,1246.197z M1917.016,1701.696c-0.311,0.633-0.975,1.991-1.133,2.307
			c-1.069,2.15-2.16,4.289-3.271,6.417c-2.259,4.326-4.605,8.607-7.038,12.838c-4.876,8.478-10.104,16.754-15.685,24.786
			c-2.954,4.252-6.007,8.436-9.157,12.544c-1.42,1.852-2.86,3.689-4.319,5.51c-0.827,1.031-1.66,2.057-2.499,3.079
			c-0.335,0.408-0.674,0.814-1.01,1.222c-0.031,0.035-0.053,0.061-0.087,0.101c-7.018,8.133-14.279,16.013-22.025,23.461
			c-7.883,7.58-16.177,14.703-24.792,21.435c-0.537,0.41-1.496,1.145-1.843,1.405c-1.176,0.88-2.359,1.752-3.548,2.616
			c-2.401,1.745-4.826,3.455-7.275,5.132c-4.86,3.326-9.812,6.517-14.848,9.569c-5.332,3.232-10.757,6.309-16.265,9.231
			c-2.661,1.412-5.342,2.787-8.04,4.127c-0.641,0.318-1.284,0.632-1.926,0.948c-0.034,0.017-0.051,0.025-0.081,0.04
			c-0.028,0.013-0.045,0.021-0.075,0.035c-1.476,0.692-2.95,1.388-4.433,2.066c-12.164,5.568-24.65,10.424-37.354,14.612
			c-6.619,2.182-13.298,4.182-20.023,6.01c-1.491,0.405-2.985,0.796-4.48,1.185c-0.243,0.055-2.905,0.727-3.357,0.836
			c-3.667,0.886-7.347,1.723-11.037,2.512c-7.548,1.614-15.139,3.025-22.76,4.251c49.134-36.125,84.607-90.197,93.081-151.629
			c2.47-17.906,2.78-35.842,1.029-53.676c34.287,6.341,70.482,3.414,102.964-9.23c33.105-12.887,62.475-35.244,83.9-63.595
			c-0.294,1.509-0.568,3.021-0.877,4.526c-3.095,15.048-6.973,29.939-11.65,44.573c-5.34,16.707-11.728,33.084-19.224,48.944
			C1917.791,1700.074,1917.313,1701.074,1917.016,1701.696z M1766.79,330.175c11.337-11.574,27.989-15.815,41.737-5.723
			c12.77,9.374,17.746,25.792,14.227,40.885c-4.21,18.057-16.949,33.526-29.965,46.149c-7.492,7.266-15.493,14.051-23.94,20.216
			c-0.902-1.281-1.787-2.574-2.639-3.888C1747.82,399.434,1740.907,356.599,1766.79,330.175z M1720.338,457.843
			c-26.726,9.876-55.802,13.654-83.722,6.881c-6.774-1.643-13.378-3.967-19.718-6.881
			C1651.378,457.843,1685.858,457.843,1720.338,457.843z M1582.511,321.614c14.079-7.041,30.855-3.856,37.4,11.639
			c7.267,17.207-1.854,36.511-10.745,51.292c-9.13,15.178-20.275,29.271-33.143,41.514c-5.396-6.682-10.014-13.98-13.654-21.765
			C1549.306,376.352,1551.694,337.026,1582.511,321.614z M1529.309,457.843c-36.038,16.139-79.169,18.58-112.697,0
			C1454.178,457.843,1491.744,457.843,1529.309,457.843z M1382.738,333.073c9.954-12.026,26.362-19.121,40.982-10.859
			c12.712,7.185,20.186,22.658,18.619,37.019c-2.058,18.861-14.509,35.553-27.409,48.693c-8.499,8.657-17.758,16.714-27.621,23.895
			c-0.173,0-0.346,0-0.519,0c-0.835-1.108-1.659-2.233-2.459-3.393C1365.534,401.206,1360.482,359.963,1382.738,333.073z
			 M1338.911,457.843c-25.26,9.356-52.56,13.246-79.143,7.892c-8.332-1.678-16.451-4.353-24.18-7.892c28.616,0,57.231,0,85.847,0
			C1327.26,457.843,1333.085,457.843,1338.911,457.843z M1197.913,323.342c12.803-7.981,29.822-7.911,38.529,5.934
			c9.977,15.867,2.028,35.638-6.04,50.449c-9.393,17.243-21.354,33.171-35.571,46.697c-4.601-5.649-8.64-11.757-11.997-18.253
			C1168.415,380.273,1168.434,341.718,1197.913,323.342z M1147.718,457.843c-22.76,9.954-47.855,14.683-72.653,11.427
			c-12.562-1.649-25.55-5.512-37.518-11.427c11,0,22,0,33.001,0C1096.27,457.843,1121.994,457.843,1147.718,457.843z
			 M998.18,422.861c-15.914-27.357-17.746-68.719,5.73-92.686c11.302-11.539,28.029-15.785,41.737-5.723
			c11.973,8.789,17.281,24.101,14.707,38.462c-3.414,19.053-16.944,35.479-30.446,48.572c-7.539,7.312-15.597,14.139-24.106,20.337
			c-0.492,0-0.984,0-1.476,0C1002.067,428.981,1000.004,425.996,998.18,422.861z M957.457,457.843
			c-26.727,9.876-55.804,13.653-83.72,6.881c-6.773-1.643-13.378-3.967-19.718-6.881
			C888.498,457.843,922.977,457.843,957.457,457.843z M819.631,321.614c14.102-7.05,30.83-3.917,37.4,11.639
			c7.305,17.297-2.138,36.348-10.788,51.266c-8.899,15.349-19.437,30.147-31.675,43.28c-6.014-7.146-11.122-15.04-15.079-23.504
			C786.428,376.357,788.804,337.026,819.631,321.614z M778.221,457.843c-0.813,0.495-1.628,0.986-2.451,1.465
			c-24.394,14.229-53.396,22.32-81.633,17.075c-15.495-2.878-30.434-9.361-43.474-18.541
			C693.182,457.843,735.701,457.843,778.221,457.843z M619.318,424.321c-16.883-28.392-21.837-71.11,4.778-95.714
			c11.899-11.001,28.722-13.742,41.72-2.913c11.634,9.692,15.932,25.158,12.617,39.641c-4.13,18.043-16.993,33.569-29.965,46.149
			c-7.547,7.319-15.609,14.141-24.122,20.337c-0.036,0-0.073,0-0.109,0C622.489,429.391,620.845,426.89,619.318,424.321z
			 M575.995,457.843c-27.404,10.116-57.343,13.852-85.828,6.343c-6.044-1.593-11.943-3.728-17.626-6.343
			C507.026,457.843,541.511,457.843,575.995,457.843z M439.134,321.167c14.356-6.787,30.909-2.622,36.927,13.107
			c6.855,17.914-3.641,37.539-12.649,52.614c-8.802,14.731-18.797,28.5-30.435,40.7c-6.401-7.646-11.776-16.135-15.822-25.253
			C404.76,374.399,408.45,335.673,439.134,321.167z M1585.587,1882.083c-33.96-0.056-67.921-0.113-101.881-0.169
			c-50.027-0.083-100.055-0.166-150.083-0.248c-61.021-0.101-122.042-0.202-183.064-0.303
			c-67.129-0.111-134.259-0.222-201.389-0.333c-67.472-0.112-134.944-0.223-202.416-0.335
			c-62.915-0.104-125.831-0.208-188.746-0.312c-53.182-0.088-106.365-0.176-159.547-0.264c-38.273-0.063-76.547-0.127-114.82-0.19
			c-15.933-0.026-32.693-1.463-48.764-0.538c1.824-129.236,3.443-258.476,4.923-387.716c1.467-128.092,2.799-256.186,4.03-384.28
			c1.051-109.359,2.028-218.719,2.936-328.079c0.651-78.338,1.267-156.676,1.842-235.015c0.17-23.18,0.336-46.36,0.497-69.54
			c0.038-5.547,0.344-11.239,0.487-16.917c10.947,0,21.893,0,32.84,0c37.37,0,74.74,0,112.11,0
			c-20.321,11.872-42.508,20.683-64.363,29.498c-4.143-5.499-10.726-9.056-18.141-9.056c-12.537,0-22.7,10.163-22.7,22.7
			c0,12.537,10.163,22.7,22.7,22.7c6.638,0,12.609-2.85,16.76-7.392c33.362-13.647,67.892-26.675,96.696-48.802
			c2.589-1.989,5.114-4.059,7.582-6.194c17.541,15.731,39.136,26.961,62.135,31.137c44.373,8.057,88.777-4.897,126.399-28.376
			c19.387,20.442,44.996,35.195,72.889,39.29c36.691,5.386,72.495-6.535,102.391-27.617c6.211-4.38,12.123-9.163,17.756-14.26
			c16.62,14.863,36.854,25.701,58.323,30.236c45.42,9.593,91.5-3.574,130.165-27.71c18.843,16.963,43.303,28.001,68.197,31.563
			c37.55,5.372,75.123-4.77,106.936-24.873c5.455-3.447,10.686-7.168,15.706-11.137c16.438,15.329,36.643,26.667,58.14,31.653
			c45.962,10.659,93.298-2.687,132.502-27.236c17.021,16.628,38.835,28.188,62.63,32.279c45.924,7.895,91.85-8.139,128.163-36.869
			c13.898,13.05,30.502,23.205,48.626,29.167c43.884,14.437,93.065,3.576,132.302-18.716c3.118-1.771,6.274-3.644,9.443-5.612
			c19.088,21.154,44.109,37.389,70.455,46.607c12.092,4.231,25.517,7.578,38.874,8.805c3.848,7.062,11.337,11.855,19.946,11.855
			c12.537,0,22.7-10.163,22.7-22.7c0-12.537-10.163-22.7-22.7-22.7c-6.353,0-12.092,2.612-16.213,6.818
			c-10.089-0.69-20.196-2.804-29.661-5.509c-20.156-5.761-39.644-15.909-56.046-29.548c34.256,0,68.511,0,102.767,0
			c20.482,0,41.628,1.456,62.178,0.34c-0.101,18.067-0.193,36.135-0.276,54.202c-0.264,57.237-0.473,114.475-0.638,171.712
			c-0.236,82.093-0.38,164.186-0.419,246.279c-0.045,94.873,0.047,189.745,0.333,284.618c0.292,96.757,0.777,193.514,1.608,290.268
			c0.08,9.279,0.166,18.558,0.252,27.837c-1.511,1.815-2.445,10.628-2.508,12.732c-8.355,26.935-25.077,50.369-46.902,69.039
			c-25.505,21.818-59.031,35.368-93.497,37.751c-21.095,1.459-42.02-0.922-62.273-6.968c-10.112-3.018-18.076,9.994-16.356,18.591
			c7.659,38.289,4.033,78.852-11.547,114.747c-13.098,30.175-33.03,55.526-59.163,76.623c-12.415,10.022-27.69,19.518-42.974,26.523
			c-0.094,0.003-0.188,0.004-0.283,0.006c-0.207,0.006-0.415-0.001-0.622-0.001
			C1610.406,1882.124,1597.996,1882.103,1585.587,1882.083z M1943.389,1882.674c-28.38-0.047-56.76-0.094-85.14-0.141
			c-34.189-0.057-68.378-0.113-102.567-0.17c-4.469-0.007-8.938-0.015-13.407-0.022c17.961-6.216,35.49-13.71,52.409-22.618
			c41.902-22.06,78.483-53.129,107.519-90.48c24.058-30.946,42.475-66.244,55.675-103.096c0.847-2.364,1.663-4.739,2.466-7.117
			c0.771,57.64,1.753,115.276,3.119,172.904c0.401,16.926,0.857,33.852,1.347,50.776
			C1957.671,1882.698,1950.53,1882.686,1943.389,1882.674z"/>
		<path style="fill:#383838;" d="M655.684,728.141c-1.565-1.278-3.651-2.035-6.075-2.023c-68.824,0.332-137.647,0.657-206.471,0.98
			c-19.617,0.092-39.234,0.184-58.85,0.276c-7.224,0.034-15.676,6.915-15.496,14.577c1.619,69.149,3.229,138.298,4.838,207.447
			c0.12,5.159,4.197,8.414,9.166,8.402c67.561-0.161,135.123-0.316,202.684-0.474c19.207-0.045,38.415-0.09,57.622-0.136
			c7.37-0.018,15.495-6.923,15.496-14.577c0.01-53.202,0.042-106.404,0.106-159.606c0.02-16.162,0.043-32.324,0.071-48.486
			C658.78,731.674,657.545,729.539,655.684,728.141z M446.752,934.685c-16.219,0.038-32.438,0.076-48.657,0.115
			c-1.432-61.507-2.865-123.014-4.304-184.521c63.546-0.298,127.091-0.596,190.637-0.899c16.558-0.079,33.115-0.158,49.673-0.238
			c-0.09,53.787-0.132,107.574-0.154,161.361c-0.003,7.915-0.005,15.83-0.007,23.744
			C571.544,934.395,509.148,934.539,446.752,934.685z"/>
		<path style="fill:#383838;" d="M1044.407,728.141c-1.565-1.278-3.651-2.035-6.075-2.023c-68.824,0.332-137.647,0.657-206.471,0.98
			c-19.617,0.092-39.234,0.184-58.85,0.276c-7.224,0.034-15.676,6.915-15.496,14.577c1.619,69.149,3.229,138.298,4.838,207.447
			c0.12,5.159,4.197,8.414,9.166,8.402c67.561-0.161,135.123-0.316,202.684-0.474c19.207-0.045,38.415-0.09,57.622-0.136
			c7.37-0.018,15.495-6.923,15.496-14.577c0.01-53.202,0.042-106.404,0.106-159.606c0.02-16.162,0.042-32.324,0.071-48.486
			C1047.503,731.674,1046.268,729.539,1044.407,728.141z M835.476,934.685c-16.219,0.038-32.438,0.076-48.657,0.115
			c-1.432-61.507-2.865-123.014-4.304-184.521c63.546-0.298,127.091-0.596,190.637-0.899c16.558-0.079,33.115-0.158,49.673-0.238
			c-0.09,53.787-0.132,107.574-0.154,161.361c-0.003,7.915-0.005,15.83-0.007,23.744
			C960.267,934.395,897.872,934.539,835.476,934.685z"/>
		<path style="fill:#383838;" d="M1433.131,728.141c-1.565-1.278-3.651-2.035-6.075-2.023c-68.824,0.332-137.647,0.657-206.471,0.98
			c-19.617,0.092-39.234,0.184-58.85,0.276c-7.224,0.034-15.676,6.915-15.496,14.577c1.619,69.149,3.229,138.298,4.838,207.447
			c0.12,5.159,4.197,8.414,9.166,8.402c67.561-0.161,135.123-0.316,202.684-0.474c19.207-0.045,38.415-0.09,57.622-0.136
			c7.37-0.018,15.495-6.923,15.496-14.577c0.01-53.202,0.042-106.404,0.106-159.606c0.02-16.162,0.043-32.324,0.071-48.486
			C1436.227,731.674,1434.992,729.539,1433.131,728.141z M1224.199,934.685c-16.219,0.038-32.438,0.076-48.657,0.115
			c-1.432-61.507-2.865-123.014-4.304-184.521c63.546-0.298,127.091-0.596,190.636-0.899c16.558-0.079,33.115-0.158,49.673-0.238
			c-0.09,53.787-0.132,107.574-0.154,161.361c-0.003,7.915-0.005,15.83-0.007,23.744
			C1348.991,934.395,1286.595,934.539,1224.199,934.685z"/>
		<path style="fill:#383838;" d="M1548.966,957.801c67.561-0.161,135.123-0.316,202.684-0.474
			c19.207-0.045,38.415-0.09,57.622-0.136c7.37-0.018,15.495-6.923,15.496-14.577c0.01-53.202,0.042-106.404,0.106-159.606
			c0.02-16.162,0.043-32.324,0.071-48.486c0.005-2.847-1.23-4.981-3.091-6.379c-1.565-1.278-3.651-2.035-6.075-2.023
			c-68.824,0.332-137.647,0.657-206.471,0.98c-19.617,0.092-39.234,0.184-58.85,0.276c-7.224,0.034-15.676,6.915-15.496,14.577
			c1.619,69.149,3.229,138.298,4.838,207.447C1539.92,954.558,1543.997,957.813,1548.966,957.801z M1750.599,749.38
			c16.558-0.079,33.115-0.158,49.673-0.238c-0.09,53.787-0.132,107.574-0.154,161.361c-0.003,7.915-0.005,15.83-0.007,23.744
			c-62.396,0.148-124.792,0.292-187.188,0.438c-16.219,0.038-32.438,0.076-48.657,0.115c-1.432-61.507-2.865-123.014-4.304-184.521
			C1623.508,749.981,1687.053,749.683,1750.599,749.38z"/>
		<path style="fill:#383838;" d="M655.684,1084.963c-1.565-1.278-3.651-2.035-6.075-2.023c-68.824,0.332-137.647,0.657-206.471,0.98
			c-19.617,0.092-39.234,0.184-58.85,0.276c-7.224,0.034-15.676,6.915-15.496,14.577c1.619,69.149,3.229,138.298,4.838,207.447
			c0.12,5.159,4.197,8.414,9.166,8.402c67.561-0.161,135.123-0.316,202.684-0.474c19.207-0.045,38.415-0.09,57.622-0.136
			c7.37-0.018,15.495-6.923,15.496-14.577c0.01-53.202,0.042-106.404,0.106-159.606c0.02-16.162,0.043-32.324,0.071-48.486
			C658.78,1088.496,657.545,1086.361,655.684,1084.963z M446.752,1291.507c-16.219,0.038-32.438,0.077-48.657,0.115
			c-1.432-61.507-2.865-123.014-4.304-184.521c63.546-0.298,127.091-0.596,190.637-0.899c16.558-0.079,33.115-0.158,49.673-0.238
			c-0.09,53.787-0.132,107.574-0.154,161.361c-0.003,7.915-0.005,15.83-0.007,23.745
			C571.544,1291.217,509.148,1291.361,446.752,1291.507z"/>
		<path style="fill:#383838;" d="M1044.407,1084.963c-1.565-1.278-3.651-2.035-6.075-2.023
			c-68.824,0.332-137.647,0.657-206.471,0.98c-19.617,0.092-39.234,0.184-58.85,0.276c-7.224,0.034-15.676,6.915-15.496,14.577
			c1.619,69.149,3.229,138.298,4.838,207.447c0.12,5.159,4.197,8.414,9.166,8.402c67.561-0.161,135.123-0.316,202.684-0.474
			c19.207-0.045,38.415-0.09,57.622-0.136c7.37-0.018,15.495-6.923,15.496-14.577c0.01-53.202,0.042-106.404,0.106-159.606
			c0.02-16.162,0.042-32.324,0.071-48.486C1047.503,1088.496,1046.268,1086.361,1044.407,1084.963z M835.476,1291.507
			c-16.219,0.038-32.438,0.077-48.657,0.115c-1.432-61.507-2.865-123.014-4.304-184.521c63.546-0.298,127.091-0.596,190.637-0.899
			c16.558-0.079,33.115-0.158,49.673-0.238c-0.09,53.787-0.132,107.574-0.154,161.361c-0.003,7.915-0.005,15.83-0.007,23.745
			C960.267,1291.217,897.872,1291.361,835.476,1291.507z"/>
		<path style="fill:#383838;" d="M1433.131,1084.963c-1.565-1.278-3.651-2.035-6.075-2.023
			c-68.824,0.332-137.647,0.657-206.471,0.98c-19.617,0.092-39.234,0.184-58.85,0.276c-7.224,0.034-15.676,6.915-15.496,14.577
			c1.619,69.149,3.229,138.298,4.838,207.447c0.12,5.159,4.197,8.414,9.166,8.402c67.561-0.161,135.123-0.316,202.684-0.474
			c19.207-0.045,38.415-0.09,57.622-0.136c7.37-0.018,15.495-6.923,15.496-14.577c0.01-53.202,0.042-106.404,0.106-159.606
			c0.02-16.162,0.043-32.324,0.071-48.486C1436.227,1088.496,1434.992,1086.361,1433.131,1084.963z M1224.199,1291.507
			c-16.219,0.038-32.438,0.077-48.657,0.115c-1.432-61.507-2.865-123.014-4.304-184.521c63.546-0.298,127.091-0.596,190.636-0.899
			c16.558-0.079,33.115-0.158,49.673-0.238c-0.09,53.787-0.132,107.574-0.154,161.361c-0.003,7.915-0.005,15.83-0.007,23.745
			C1348.991,1291.217,1286.595,1291.361,1224.199,1291.507z"/>
		<path style="fill:#383838;" d="M1809.272,1314.012c7.37-0.018,15.495-6.923,15.496-14.577
			c0.01-53.202,0.042-106.404,0.106-159.606c0.02-16.162,0.043-32.324,0.071-48.486c0.005-2.846-1.23-4.981-3.091-6.379
			c-1.565-1.278-3.651-2.035-6.075-2.023c-68.824,0.332-137.647,0.657-206.471,0.98c-19.617,0.092-39.234,0.184-58.85,0.276
			c-7.224,0.034-15.676,6.915-15.496,14.577c1.619,69.149,3.229,138.298,4.838,207.447c0.12,5.159,4.197,8.414,9.167,8.402
			c67.561-0.161,135.123-0.316,202.684-0.474C1770.857,1314.103,1790.065,1314.058,1809.272,1314.012z M1564.266,1291.622
			c-1.432-61.507-2.865-123.014-4.304-184.521c63.546-0.298,127.091-0.596,190.636-0.899c16.558-0.079,33.115-0.158,49.673-0.238
			c-0.09,53.787-0.132,107.574-0.154,161.361c-0.003,7.915-0.005,15.83-0.007,23.745c-62.396,0.148-124.792,0.292-187.188,0.438
			C1596.704,1291.545,1580.485,1291.583,1564.266,1291.622z"/>
		<path style="fill:#383838;" d="M655.685,1441.786c-1.565-1.278-3.651-2.035-6.076-2.024c-68.824,0.332-137.647,0.656-206.471,0.98
			c-19.617,0.092-39.234,0.184-58.85,0.276c-7.224,0.034-15.676,6.915-15.496,14.577c1.619,69.149,3.229,138.298,4.838,207.447
			c0.12,5.159,4.197,8.414,9.166,8.402c67.561-0.161,135.123-0.316,202.684-0.474c19.207-0.045,38.415-0.09,57.622-0.136
			c7.37-0.018,15.495-6.923,15.496-14.577c0.01-53.202,0.042-106.404,0.106-159.606c0.02-16.162,0.043-32.324,0.071-48.486
			C658.78,1445.318,657.545,1443.183,655.685,1441.786z M446.752,1648.329c-16.219,0.038-32.438,0.077-48.657,0.115
			c-1.432-61.507-2.865-123.014-4.304-184.521c63.546-0.298,127.091-0.596,190.637-0.899c16.558-0.079,33.115-0.158,49.673-0.238
			c-0.09,53.787-0.132,107.574-0.154,161.361c-0.003,7.915-0.005,15.83-0.007,23.744
			C571.544,1648.039,509.148,1648.182,446.752,1648.329z"/>
		<path style="fill:#383838;" d="M1044.408,1441.786c-1.565-1.278-3.651-2.035-6.076-2.024
			c-68.824,0.332-137.647,0.656-206.471,0.98c-19.617,0.092-39.234,0.184-58.85,0.276c-7.224,0.034-15.676,6.915-15.496,14.577
			c1.619,69.149,3.229,138.298,4.838,207.447c0.12,5.159,4.197,8.414,9.166,8.402c67.561-0.161,135.123-0.316,202.684-0.474
			c19.207-0.045,38.415-0.09,57.622-0.136c7.37-0.018,15.495-6.923,15.496-14.577c0.01-53.202,0.042-106.404,0.106-159.606
			c0.02-16.162,0.042-32.324,0.071-48.486C1047.503,1445.318,1046.269,1443.183,1044.408,1441.786z M835.476,1648.329
			c-16.219,0.038-32.438,0.077-48.657,0.115c-1.432-61.507-2.865-123.014-4.304-184.521c63.546-0.298,127.091-0.596,190.637-0.899
			c16.558-0.079,33.115-0.158,49.673-0.238c-0.09,53.787-0.132,107.574-0.154,161.361c-0.003,7.915-0.005,15.83-0.007,23.744
			C960.267,1648.039,897.872,1648.182,835.476,1648.329z"/>
		<path style="fill:#383838;" d="M1433.132,1441.786c-1.565-1.278-3.651-2.035-6.076-2.024
			c-68.824,0.332-137.647,0.656-206.471,0.98c-19.617,0.092-39.234,0.184-58.85,0.276c-7.224,0.034-15.676,6.915-15.496,14.577
			c1.619,69.149,3.229,138.298,4.838,207.447c0.12,5.159,4.197,8.414,9.166,8.402c67.561-0.161,135.123-0.316,202.684-0.474
			c19.207-0.045,38.415-0.09,57.622-0.136c7.37-0.018,15.495-6.923,15.496-14.577c0.01-53.202,0.042-106.404,0.106-159.606
			c0.02-16.162,0.043-32.324,0.071-48.486C1436.227,1445.318,1434.992,1443.183,1433.132,1441.786z M1224.199,1648.329
			c-16.219,0.038-32.438,0.077-48.657,0.115c-1.432-61.507-2.865-123.014-4.304-184.521c63.546-0.298,127.091-0.596,190.636-0.899
			c16.558-0.079,33.115-0.158,49.673-0.238c-0.09,53.787-0.132,107.574-0.154,161.361c-0.003,7.915-0.005,15.83-0.007,23.744
			C1348.991,1648.039,1286.595,1648.182,1224.199,1648.329z"/>
	</g>
</g>
</svg>
