<?xml version="1.0" encoding="utf-8"?>
<!-- Generator: Adobe Illustrator 27.5.0, SVG Export Plug-In . SVG Version: 6.00 Build 0)  -->
<svg version="1.1" xmlns="http://www.w3.org/2000/svg" xmlns:xlink="http://www.w3.org/1999/xlink" x="0px" y="0px"
	 viewBox="0 0 2200 2200" style="enable-background:new 0 0 2200 2200;" xml:space="preserve">
<g id="background">
	<rect style="fill:#FFFFFF;" width="2200" height="2200"/>
</g>
<g id="Objects">
	<g>
		<path d="M1100,1662.521c-75.933,0-149.603-14.875-218.964-44.213c-66.986-28.333-127.143-68.891-178.798-120.546
			s-92.213-111.812-120.546-178.798c-29.338-69.361-44.213-143.031-44.213-218.964c0-75.932,14.875-149.602,44.213-218.964
			c28.333-66.987,68.891-127.143,120.546-178.798c51.655-51.656,111.812-92.213,178.798-120.546
			c69.361-29.337,143.031-44.213,218.964-44.213s149.603,14.875,218.964,44.213c66.986,28.333,127.143,68.89,178.798,120.546
			c51.655,51.655,92.213,111.812,120.546,178.798c29.338,69.362,44.213,143.032,44.213,218.964
			c0,75.933-14.875,149.603-44.213,218.964c-28.333,66.986-68.891,127.143-120.546,178.798s-111.812,92.213-178.798,120.546
			C1249.603,1647.646,1175.933,1662.521,1100,1662.521z M1100,572.245c-71.254,0-140.367,13.951-205.421,41.467
			c-62.843,26.58-119.284,64.635-167.758,113.109c-48.474,48.474-86.529,104.916-113.109,167.758
			c-27.516,65.053-41.467,134.167-41.467,205.421c0,71.254,13.951,140.367,41.467,205.421
			c26.58,62.843,64.636,119.284,113.109,167.758s104.915,86.529,167.758,113.109c65.054,27.516,134.167,41.467,205.421,41.467
			s140.367-13.951,205.421-41.467c62.843-26.58,119.284-64.636,167.758-113.109s86.529-104.915,113.109-167.758
			c27.516-65.054,41.467-134.167,41.467-205.421c0-71.254-13.951-140.368-41.467-205.421
			c-26.58-62.843-64.636-119.285-113.109-167.758c-48.474-48.474-104.915-86.529-167.758-113.109
			C1240.367,586.196,1171.254,572.245,1100,572.245z"/>
		<path d="M1228.081,1950.796H971.919c-50.253,0-91.137-40.884-91.137-91.137v-78.776c-36.803-11.846-72.758-26.753-107.198-44.447
			l-55.733,55.734c-35.534,35.534-93.352,35.535-128.888,0.001L407.83,1611.037c-35.534-35.534-35.534-93.354,0-128.888
			l55.735-55.733c-17.694-34.44-32.602-70.396-44.447-107.198h-78.776c-50.253,0-91.137-40.884-91.137-91.137V971.919
			c0-50.253,40.884-91.137,91.137-91.137h78.776c11.845-36.802,26.753-72.756,44.447-107.198L407.83,717.85
			c-35.534-35.534-35.534-93.353,0-128.887L588.963,407.83c35.534-35.533,93.352-35.534,128.888,0l55.733,55.734
			c34.442-17.694,70.397-32.602,107.198-44.447v-78.776c0-50.253,40.884-91.137,91.137-91.137h256.162
			c50.253,0,91.137,40.884,91.137,91.137v78.776c36.802,11.845,72.757,26.753,107.198,44.446l55.733-55.734
			c35.536-35.534,93.354-35.533,128.888,0l181.134,181.134c35.534,35.534,35.534,93.353,0,128.887l-55.735,55.734
			c17.694,34.441,32.602,70.396,44.447,107.198h78.776c50.253,0,91.137,40.884,91.137,91.137v256.162
			c0,50.253-40.884,91.137-91.137,91.137h-78.776c-11.846,36.803-26.753,72.758-44.447,107.198l55.734,55.733
			c35.535,35.534,35.535,93.354,0.001,128.888l-181.134,181.134c-35.534,35.532-93.352,35.534-128.888,0l-55.733-55.735
			c-34.44,17.694-70.396,32.602-107.198,44.447v78.776C1319.218,1909.912,1278.334,1950.796,1228.081,1950.796z M770.346,1697.713
			c2.803,0,5.627,0.678,8.219,2.07c39.668,21.305,81.597,38.688,124.621,51.67c7.34,2.214,12.362,8.976,12.362,16.642v91.564
			c0,31.083,25.288,56.371,56.371,56.371h256.162c31.083,0,56.371-25.288,56.371-56.371v-91.564c0-7.666,5.022-14.428,12.362-16.642
			c43.024-12.981,84.953-30.365,124.621-51.67c6.756-3.631,15.093-2.401,20.517,3.022l64.781,64.782
			c10.646,10.646,24.803,16.51,39.859,16.51c15.058,0,29.214-5.863,39.86-16.511l181.134-181.134
			c10.647-10.646,16.511-24.803,16.511-39.86c0-15.057-5.863-29.213-16.511-39.859l-64.781-64.781
			c-5.424-5.424-6.652-13.76-3.022-20.517c21.305-39.668,38.688-81.597,51.67-124.621c2.214-7.34,8.976-12.362,16.642-12.362h91.564
			c31.083,0,56.371-25.288,56.371-56.371V971.919c0-31.083-25.288-56.371-56.371-56.371h-91.564
			c-7.666,0-14.428-5.022-16.642-12.362c-12.98-43.024-30.365-84.952-51.67-124.621c-3.63-6.757-2.401-15.093,3.022-20.517
			l64.782-64.782c10.646-10.647,16.51-24.803,16.51-39.86s-5.863-29.213-16.511-39.86l-181.134-181.134
			c-10.646-10.647-24.803-16.511-39.86-16.511c-15.057,0-29.213,5.864-39.859,16.511l-64.781,64.782
			c-5.422,5.423-13.759,6.652-20.517,3.022c-39.668-21.305-81.597-38.689-124.621-51.669c-7.34-2.214-12.362-8.976-12.362-16.642
			v-91.564c0-31.083-25.288-56.371-56.371-56.371H971.919c-31.083,0-56.371,25.288-56.371,56.371v91.564
			c0,7.667-5.022,14.428-12.362,16.642c-43.022,12.98-84.951,30.364-124.621,51.669c-6.758,3.63-15.093,2.401-20.517-3.022
			l-64.781-64.782c-10.646-10.647-24.803-16.511-39.859-16.511c-15.058,0-29.214,5.864-39.86,16.511L432.413,613.546
			c-10.647,10.647-16.511,24.803-16.511,39.86s5.864,29.213,16.511,39.86l64.782,64.782c5.424,5.423,6.652,13.76,3.022,20.517
			c-21.305,39.668-38.689,81.597-51.669,124.621c-2.214,7.339-8.976,12.362-16.642,12.362h-91.564
			c-31.083,0-56.371,25.288-56.371,56.371v256.162c0,31.083,25.288,56.371,56.371,56.371h91.564c7.667,0,14.428,5.022,16.642,12.362
			c12.981,43.024,30.365,84.953,51.669,124.621c3.63,6.757,2.401,15.093-3.022,20.517l-64.782,64.781
			c-10.647,10.646-16.511,24.803-16.511,39.859c0,15.058,5.864,29.214,16.511,39.86l181.134,181.134
			c10.646,10.647,24.803,16.511,39.86,16.511c15.057,0,29.213-5.863,39.859-16.511l64.781-64.781
			C761.391,1699.462,765.841,1697.713,770.346,1697.713z"/>
		<path d="M1431.229,1411.109c1.735,11.753-8.367,21.855-20.12,20.12l-114.199-16.893c-57.057,35.831-124.573,56.541-196.91,56.541
			c-204.827,0-370.877-166.051-370.877-370.877S895.173,729.123,1100,729.123S1470.877,895.173,1470.877,1100
			c0,72.337-20.711,139.853-56.542,196.91L1431.229,1411.109z"/>
		<circle style="fill:#FFFFFF;" cx="1100" cy="1100" r="53.481"/>
		<circle style="fill:#FFFFFF;" cx="921.643" cy="1100" r="53.481"/>
		<circle style="fill:#FFFFFF;" cx="1278.357" cy="1100" r="53.481"/>
	</g>
</g>
</svg>
