<svg xmlns="http://www.w3.org/2000/svg" viewBox="0 0 24 24" width="48" height="48">
<style>
    .icon-bg { fill: #404040; transition: fill 0.3s ease; }
    .icon-line { stroke: #1C252C; stroke-width: 2; stroke-linecap: round; stroke-linejoin: round; transition: stroke 0.3s ease; }
    svg:hover .icon-bg { fill: #4A4A4A; }
    svg:hover .icon-line { stroke: #4A90E2; }
</style>
<rect class="icon-bg" width="24" height="24" rx="6" ry="6"/>

<circle class="icon-line" cx="12" cy="12" r="3"/>
<path class="icon-line" d="M19.4 15a1.65 1.65 0 0 0 .33 1.82l.06.06a2 2 0 1 1-2.83 2.83l-.06-.06a1.65 1.65 0 0 0-1.82-.33 1.65 1.65 0 0 0-1 1.51V21a2 2 0 1 1-4 0v-.09a1.65 1.65 0 0 0-1-1.51 1.65 1.65 0 0 0-1.82.33l-.06.06a2 2 0 1 1-2.83-2.83l.06-.06a1.65 1.65 0 0 0 .33-1.82 1.65 1.65 0 0 0-1.51-1H3a2 2 0 1 1 0-4h.09a1.65 1.65 0 0 0 1.51-1 1.65 1.65 0 0 0-.33-1.82l-.06-.06a2 2 0 1 1 2.83-2.83l.06.06a1.65 1.65 0 0 0 1.82.33h.09A1.65 1.65 0 0 0 9 3.09V3a2 2 0 1 1 4 0v.09a1.65 1.65 0 0 0 1 1.51h.09a1.65 1.65 0 0 0 1.82-.33l.06-.06a2 2 0 1 1 2.83 2.83l-.06.06a1.65 1.65 0 0 0-.33 1.82v.09a1.65 1.65 0 0 0 1.51 1H21a2 2 0 1 1 0 4h-.09a1.65 1.65 0 0 0-1.51 1z"/>

</svg>