<?xml version="1.0" encoding="utf-8"?>
<!-- Generator: Adobe Illustrator 27.5.0, SVG Export Plug-In . SVG Version: 6.00 Build 0)  -->
<svg version="1.1" id="Layer_1" xmlns="http://www.w3.org/2000/svg" xmlns:xlink="http://www.w3.org/1999/xlink" x="0px" y="0px"
	 viewBox="0 0 1000 1000" style="enable-background:new 0 0 1000 1000;" xml:space="preserve">
<rect style="fill:#FFFFFF;" width="1000" height="1000"/>
<g>
	<g>
		<path d="M793.333,704.124H510.046c-9.212,0-16.712-7.5-16.712-16.712v-29.974c0-3.685,2.982-6.667,6.667-6.667h293.333
			c3.685,0,6.667,2.982,6.667,6.667v40.02C800,701.143,797.018,704.124,793.333,704.124z M506.667,664.105v23.307
			c0,1.862,1.517,3.379,3.379,3.379h276.621v-26.686H506.667z"/>
	</g>
	<g>
		<path d="M489.954,704.124H206.667c-3.685,0-6.667-2.982-6.667-6.667v-40.02c0-3.685,2.982-6.667,6.667-6.667H500
			c3.685,0,6.667,2.982,6.667,6.667v29.974C506.667,696.624,499.167,704.124,489.954,704.124z M213.333,690.791h276.621
			c1.862,0,3.379-1.517,3.379-3.379v-23.307h-280V690.791z"/>
	</g>
	<g>
		<path d="M767.513,664.105H500c-3.685,0-6.667-2.982-6.667-6.667c0-47.474,38.62-86.1,86.094-86.1h188.086
			c3.685,0,6.667,2.982,6.667,6.667v79.434C774.18,661.123,771.198,664.105,767.513,664.105z M506.966,650.771h253.88v-66.1H579.427
			C541.549,584.671,510.345,613.76,506.966,650.771z"/>
	</g>
	<g>
		<path d="M500,664.105H232.48c-3.685,0-6.667-2.982-6.667-6.667v-79.434c0-3.685,2.982-6.667,6.667-6.667h188.086
			c47.474,0,86.1,38.626,86.1,86.1C506.667,661.123,503.685,664.105,500,664.105z M239.147,650.771h253.887
			c-3.379-37.012-34.59-66.1-72.467-66.1H239.147V650.771z"/>
	</g>
	<g>
		<path d="M538.294,511.338h-76.595c-3.685,0-6.667-2.982-6.667-6.667V473.18c0-3.685,2.982-6.667,6.667-6.667h76.595
			c3.685,0,6.667,2.982,6.667,6.667v31.491C544.961,508.356,541.979,511.338,538.294,511.338z M468.366,498.005h63.262v-18.158
			h-63.262V498.005z"/>
	</g>
	<g>
		<path d="M500,560.7c-24.798,0-44.967-20.169-44.967-44.967v-11.061c0-3.685,2.982-6.667,6.667-6.667h76.595
			c3.685,0,6.667,2.982,6.667,6.667v11.061C544.961,540.531,524.792,560.7,500,560.7z M468.366,511.338v4.395
			c0,17.441,14.193,31.634,31.634,31.634c17.435,0,31.628-14.193,31.628-31.634v-4.395H468.366z"/>
	</g>
	<g>
		<g>
			<path d="M509.902,479.847c-0.592,0-1.191-0.078-1.79-0.241c-3.548-0.983-5.625-4.661-4.642-8.21l13.978-50.352
				c0.99-3.542,4.596-5.605,8.203-4.642c3.542,0.983,5.625,4.661,4.635,8.21l-13.971,50.352
				C515.495,477.913,512.819,479.847,509.902,479.847z"/>
		</g>
		<g>
			<path d="M490.098,479.847c-2.917,0-5.599-1.934-6.419-4.883l-13.971-50.352c-0.983-3.548,1.094-7.227,4.642-8.21
				c3.548-0.964,7.22,1.094,8.21,4.642l13.971,50.352c0.983,3.548-1.094,7.227-4.642,8.21
				C491.289,479.769,490.69,479.847,490.098,479.847z"/>
		</g>
	</g>
	<g>
		<path d="M538.294,479.847h-76.595c-2.813,0-5.326-1.764-6.276-4.414c-5.078-14.173-12.552-28.861-19.772-43.066
			c-10.645-20.931-19.837-39.004-19.837-52.305c0-46.419,37.767-84.186,84.186-84.186s84.193,37.767,84.193,84.186
			c0,13.301-9.206,31.387-19.857,52.331c-7.214,14.199-14.688,28.88-19.766,43.04C543.62,478.083,541.107,479.847,538.294,479.847z
			 M466.328,466.514h67.344c5.221-13.496,12.109-27.031,18.789-40.169c9.466-18.6,18.398-36.178,18.398-46.283
			c0-39.069-31.784-70.853-70.859-70.853c-39.069,0-70.853,31.784-70.853,70.853c0,10.104,8.932,27.669,18.385,46.263
			C454.219,439.463,461.107,453.011,466.328,466.514z"/>
	</g>
</g>
</svg>
